<?xml version="1.0" encoding="UTF-8"?>
<svg width="3px" height="13px" viewBox="0 0 3 13" version="1.1" xmlns="http://www.w3.org/2000/svg" xmlns:xlink="http://www.w3.org/1999/xlink">
    <title>Combined Shape</title>
    <g id="Журнал" stroke="none" stroke-width="1" fill="none" fill-rule="evenodd">
        <g id="Логистика-Copy-39" transform="translate(-314.000000, -316.000000)" fill="#A6B7D4">
            <g id="Group-2-Copy-7" transform="translate(254.000000, 222.000000)">
                <g id="Group-Copy-3" transform="translate(1.000000, 78.000000)">
                    <g id="Group-12-Copy" transform="translate(59.000000, 16.000000)">
                        <path d="M1.5,0 C2.32842712,-1.52179594e-16 3,0.671572875 3,1.5 C3,2.32842712 2.32842712,3 1.5,3 C0.671572875,3 1.01453063e-16,2.32842712 0,1.5 C-1.01453063e-16,0.671572875 0.671572875,1.52179594e-16 1.5,0 Z M1.5,5 C2.32842712,5 3,5.67157288 3,6.5 C3,7.32842712 2.32842712,8 1.5,8 C0.671572875,8 1.01453063e-16,7.32842712 0,6.5 C-1.01453063e-16,5.67157288 0.671572875,5 1.5,5 Z M1.5,10 C2.32842712,10 3,10.6715729 3,11.5 C3,12.3284271 2.32842712,13 1.5,13 C0.671572875,13 1.01453063e-16,12.3284271 0,11.5 C-1.01453063e-16,10.6715729 0.671572875,10 1.5,10 Z" id="Combined-Shape"></path>
                    </g>
                </g>
            </g>
        </g>
    </g>
</svg>