<svg width="119px" height="26px" viewBox="0 0 119 26" version="1.1" xmlns="http://www.w3.org/2000/svg" xmlns:xlink="http://www.w3.org/1999/xlink">
    <g id="Журнал" stroke="none" stroke-width="1" fill="none" fill-rule="evenodd">
        <g id="Логистика-Copy-39" transform="translate(-55.000000, -28.000000)">
            <g id="Group-4" transform="translate(55.000000, 31.000000)">
                <path d="M112.624574,19.3045951 C114.187068,19.3045951 115.525605,18.9139716 116.640184,18.1327245 C117.92143,17.2368945 118.577677,15.9139827 118.608927,14.1639892 C118.650594,11.705665 117.478723,9.94004658 115.093315,8.8671339 C113.937069,8.45046878 112.567283,8.13796994 110.983955,7.92963738 C109.400628,7.72130482 108.244382,7.48172238 107.515218,7.21089005 C106.400639,6.81505819 105.843349,6.2629769 105.843349,5.5546462 C105.843349,5.04423143 105.983974,4.64319125 106.265223,4.35152567 C106.546472,4.05986009 106.937095,3.91402729 107.437094,3.91402729 L115.890187,3.91402729 L117.405807,0.242165933 L107.437094,0.242165933 C105.8121,0.242165933 104.431896,0.705705878 103.296484,1.63278577 C102.056905,2.63278205 101.437116,3.94006886 101.437116,5.5546462 C101.437116,7.65880505 102.44232,9.19004937 104.45273,10.1483791 C105.608975,10.5858775 107.127199,10.958272 109.0074,11.2655625 C110.887602,11.572853 112.213117,11.8983726 112.983948,12.2421214 C113.806862,12.61712 114.21311,13.2421176 114.202693,14.1171144 C114.21311,14.6379458 114.067277,15.038986 113.765195,15.3202349 C113.483946,15.5285675 113.103739,15.6327338 112.624574,15.6327338 L97.358943,15.6278857 L95.8433236,19.2997471 L112.624574,19.3045951 Z" id="Path-2" fill="#FD8301" fill-rule="nonzero"></path>
                <path d="M78.5245042,20.8045951 L88.5983926,-1.24220913 L93.6978053,-1.24220913 L103.771694,20.8045951 L95.5757879,20.8045951 L78.5245042,20.8045951 Z M92.655,14.038 L91.1633569,10.5809798 L89.7199625,14.0389841 L92.655,14.038 Z" id="Path" stroke="#0C1016" stroke-width="3" fill="#FD8301" fill-rule="nonzero"></path>
                <path d="M70.1716144,4.02340189 L77.1090886,4.02340189 C77.4424207,4.02340189 77.7549195,4.16923468 78.0465851,4.46090026 C78.4736669,4.87756538 78.6872077,5.67443742 78.6872077,6.85151638 C78.6872077,8.01817872 78.4736669,8.80984244 78.0465851,9.22650756 C77.7549195,9.51817315 77.4424207,9.66400594 77.1090886,9.66400594 L77.1090886,9.66400594 L71.7341086,9.66400594 L70.1716144,13.4452419 L70.1716144,4.02340189 Z M70.1716144,13.4452419 L77.1090886,13.4452419 C78.9319985,13.4452419 80.4684511,12.8202442 81.7184465,11.5702489 C82.8330257,10.4556697 83.3903153,8.88275884 83.3903153,6.85151638 C83.3903153,4.82027393 82.8330257,3.24215479 81.7184465,2.11715897 C80.4684511,0.877580239 78.9319985,0.257790875 77.1090886,0.257790875 L77.1090886,0.257790875 L65.4685068,0.257790875 L65.4685068,19.3045951 L70.1716144,19.3045951 L70.1716144,13.4452419 Z" id="pas" fill="#FD8301" fill-rule="nonzero"></path>
                <g id="Group-3">
                    <path d="M26.0942678,19.3556382 C25.8119277,18.7541915 25.6207609,18.2284828 25.5207675,17.7785122 C25.420774,17.3285415 25.3251906,16.5638743 25.2340173,15.4845106 L9.21871576,15.5389841 C8.07288668,15.5389841 7.06768208,15.1066941 6.20310196,14.2421139 C5.20310567,13.2421176 4.70310753,11.705665 4.70310753,9.63275605 C4.70310753,7.75776302 5.20310567,6.32026836 6.20310196,5.32027207 C7.06768208,4.45569195 8.07288668,4.02340189 9.21871576,4.02340189 L23.5135161,4.01450275 C23.9632899,3.12194108 24.3934152,2.45285729 24.803892,2.00725137 C25.0698895,1.71848941 25.5955982,1.14498902 26.381018,0.286750196 L9.21871576,0.257790875 C6.58330888,0.257790875 4.35935881,1.16924582 2.54686554,2.99215572 C0.84895518,4.67964945 0,6.8931829 0,9.63275605 C0,12.5702451 0.84895518,14.8827366 2.54686554,16.5702303 C4.35935881,18.3931402 6.58330888,19.3045951 9.21871576,19.3045951 L26.0942678,19.3556382 Z" id="compss" fill="#FFFFFF" fill-rule="nonzero"></path>
                    <polygon id="Path" fill="#FD8301" fill-rule="nonzero" points="62.7966418 19.3045951 62.7966418 0.257790875 59.515404 0.257790875 50.2029385 15.4139846 52.2498059 18.7108473 58.4060331 8.94525861 58.4060331 19.3045951"></polygon>
                    <path d="M32.039802,-1.44499653 C34.913452,-1.56598411 38.0761439,-1.46891744 39.7759978,0.240743281 C41.3160029,1.77130046 41.4118401,4.73401818 41.2491003,7.72754366 C41.2105487,8.43668243 41.1717277,9.13582126 41.1717277,9.78900547 C41.1717277,13.4186826 40.1293289,16.1677673 38.1885571,18.0965952 C36.0870975,20.2101322 33.5103949,21.2733434 30.4530119,21.2733434 L28.2342701,21.2733434 C27.6454474,21.2733434 27.0080829,21.3197761 26.3509007,21.366202 L25.5783208,21.4185681 C23.0789353,21.573941 20.6605751,21.3678176 19.1580147,19.8652572 C17.56261,18.2698525 17.3992134,14.8154472 17.4848974,11.5124821 C17.5002983,10.9188052 17.5155544,10.3377807 17.5155544,9.78900547 C17.5155544,6.37353978 18.5473146,3.71769081 20.498725,1.77828961 C22.6001845,-0.335247321 25.1768871,-1.39845855 28.2342701,-1.39845855 L30.4530119,-1.39845855 C30.9464003,-1.39845855 31.4828609,-1.42154797 32.039802,-1.44499653 Z" id="Path" stroke="#090C10" stroke-width="3" fill="#FFFFFF" fill-rule="nonzero"></path>
                    <polygon id="Path" fill="#FFFFFF" fill-rule="nonzero" points="46.0935788 19.3045951 46.0935788 8.94525861 49.4685663 14.2421139 51.5154337 10.9608761 44.9842079 0.257790875 41.7029701 0.257790875 41.7029701 19.3045951"></polygon>
                    <g id="Group-2" transform="translate(29.535270, 10.036257) rotate(-315.000000) translate(-29.535270, -10.036257) translate(25.807518, 0.000000)">
                        <polygon id="Triangle" fill="#C74923" points="3.87112765 7.13118941e-14 7.4555051 10.0362569 0 10.0362569"></polygon>
                        <polygon id="Triangle" fill="#1353A2" transform="translate(3.727753, 15.054385) scale(1, -1) translate(-3.727753, -15.054385) " points="3.87112765 10.0362569 7.4555051 20.0725137 0 20.0725137"></polygon>
                        <circle id="Oval" fill="#FFFFFF" cx="3.72775255" cy="10.0362569" r="1.00362569"></circle>
                    </g>
                </g>
            </g>
        </g>
    </g>
</svg>